<?xml version="1.0" encoding="UTF-8" standalone="no"?>
<!-- Created with Inkscape (http://www.inkscape.org/) -->
<svg xmlns:inkscape="http://www.inkscape.org/namespaces/inkscape" xmlns:rdf="http://www.w3.org/1999/02/22-rdf-syntax-ns#" xmlns="http://www.w3.org/2000/svg" xmlns:sodipodi="http://sodipodi.sourceforge.net/DTD/sodipodi-0.dtd" xmlns:ns1="http://sozi.baierouge.fr" xmlns:cc="http://creativecommons.org/ns#" xmlns:xlink="http://www.w3.org/1999/xlink" xmlns:dc="http://purl.org/dc/elements/1.1/" id="svg2" viewBox="0 0 20 20" version="1.1" inkscape:version="0.48.5 r10040" sodipodi:docname="octalpus.svg">
  <sodipodi:namedview id="base" fit-margin-left="0" inkscape:showpageshadow="false" inkscape:zoom="16" borderopacity="1.0" inkscape:current-layer="layer2" inkscape:cx="24.490649" inkscape:cy="9.1482811" borderlayer="true" inkscape:snap-page="true" inkscape:window-maximized="1" inkscape:snap-bbox="true" showgrid="false" fit-margin-right="0" inkscape:bbox-nodes="true" bordercolor="#666666" inkscape:window-x="0" inkscape:window-y="2" fit-margin-bottom="0" inkscape:window-width="1280" inkscape:pageopacity="0.0" inkscape:pageshadow="2" pagecolor="#ffffff" inkscape:bbox-paths="true" inkscape:document-units="px" inkscape:window-height="778" fit-margin-top="0">
    <inkscape:grid id="grid3050" originy="-3px" enabled="true" originx="-1px" visible="true" snapvisiblegridlinesonly="true" type="xygrid" empspacing="5"/>
  </sodipodi:namedview>
  <style type="text/css"><![CDATA[
    @keyframes tentacle-sway-left {
      0%, 100% { transform: translateX(0) translateY(0) rotate(0deg); }
      25% { transform: translateX(-0.28px) translateY(0.15px) rotate(-2.8deg); }
      50% { transform: translateX(-0.52px) translateY(0.28px) rotate(-4.2deg); }
      75% { transform: translateX(-0.2px) translateY(0.1px) rotate(-1.6deg); }
    }

    @keyframes tentacle-sway-mid {
      0%, 100% { transform: translateX(0) translateY(0) rotate(0deg); }
      25% { transform: translateX(0.22px) translateY(0.1px) rotate(1.8deg); }
      50% { transform: translateX(0.38px) translateY(0.2px) rotate(3deg); }
      75% { transform: translateX(0.1px) translateY(0.06px) rotate(1.1deg); }
    }

    @keyframes tentacle-sway-right {
      0%, 100% { transform: translateX(0) translateY(0) rotate(0deg); }
      25% { transform: translateX(0.32px) translateY(0.15px) rotate(3deg); }
      50% { transform: translateX(0.55px) translateY(0.28px) rotate(4.6deg); }
      75% { transform: translateX(0.18px) translateY(0.1px) rotate(1.8deg); }
    }

    #rect3195, #rect3197, #rect3199, #rect3201, #rect3203, #rect3205, #rect3207, #rect3209, #rect3243, #rect3245,
    #rect3295, #rect3297, #rect3299, #rect3301, #rect3303, #rect3311, #rect3313, #rect3315 {
      transform-box: fill-box;
      transform-origin: center;
      animation: tentacle-sway-left 2.8s ease-in-out infinite;
    }

    #rect3215, #rect3217, #rect3219, #rect3221, #rect3223, #rect3225,
    #rect3317, #rect3319, #rect3321, #rect3323, #rect3325, #rect3305, #rect3307, #rect3293,
    #rect3227, #rect3229, #rect3231, #rect3233, #rect3235, #rect3237, #rect3239, #rect3241,
    #rect3405, #rect3407, #rect3409, #rect3411, #rect3413, #rect3415 {
      transform-box: fill-box;
      transform-origin: center;
      animation: tentacle-sway-mid 3.1s ease-in-out infinite;
      animation-delay: -0.55s;
    }

    #rect3417, #rect3419, #rect3421, #rect3423, #rect3425, #rect3427, #rect3429, #rect3431,
    #rect3447, #rect3449, #rect3508, #rect3510, #rect3512, #rect3514, #rect3516, #rect3518,
    #rect3520, #rect3522, #rect3524, #rect3526 {
      transform-box: fill-box;
      transform-origin: center;
      animation: tentacle-sway-right 2.6s ease-in-out infinite;
      animation-delay: -0.9s;
    }
  ]]></style>
  <g id="layer2" inkscape:label="top" transform="translate(-1,3)" inkscape:groupmode="layer">
    <rect id="rect3053" style="color:#000000;fill:#2f2725" height="1" width="1" y=".5" x="5.5"/>
    <rect id="rect3055" style="color:#000000;fill:#ffffff" height="1" width="1" y="3.5" x="6.5"/>
    <rect id="rect3057" style="color:#000000;fill:#8c51cd" height="1" width="1" y="1.5" x="5.5"/>
    <rect id="rect3059" style="color:#000000;fill:#2f2725" height="1" width="1" y="1.5" x="4.5"/>
    <rect id="rect3061" style="color:#000000;fill:#2f2725" height="1" width="1" y="2.5" x="4.5"/>
    <rect id="rect3063" style="color:#000000;fill:#8c51cd" height="1" width="1" y="1.5" x="6.5"/>
    <rect id="rect3065" style="color:#000000;fill:#8c51cd" height="1" width="1" y="1.5" x="7.5"/>
    <rect id="rect3067" style="color:#000000;fill:#8c51cd" height="1" width="1" y="1.5" x="8.5"/>
    <rect id="rect3069" style="color:#000000;fill:#8c51cd" height="1" width="1" y="1.5" x="9.5"/>
    <rect id="rect3071" style="color:#000000;fill:#8c51cd" height="1" width="1" y="1.5" x="10.5"/>
    <rect id="rect3073" style="color:#000000;fill:#8c51cd" height="1" width="1" y="1.5" x="11.5"/>
    <rect id="rect3075" style="color:#000000;fill:#8c51cd" height="1" width="1" y="1.5" x="12.5"/>
    <rect id="rect3077" style="color:#000000;fill:#8c51cd" height="1" width="1" y="1.5" x="13.5"/>
    <rect id="rect3079" style="color:#000000;fill:#8c51cd" height="1" width="1" y="1.5" x="14.5"/>
    <rect id="rect3081" style="color:#000000;fill:#8c51cd" height="1" width="1" y="1.5" x="15.5"/>
    <rect id="rect3083" style="color:#000000;fill:#2f2725" height="1" width="1" y="3.5" x="3.5"/>
    <rect id="rect3085" style="color:#000000;fill:#2f2725" height="1" width="1" y="4.5" x="3.5"/>
    <rect id="rect3087" style="color:#000000;fill:#2f2725" height="1" width="1" y="5.5" x="3.5"/>
    <rect id="rect3089" style="color:#000000;fill:#2f2725" height="1" width="1" y="6.5" x="3.5"/>
    <rect id="rect3091" style="color:#000000;fill:#8c51cd" height="1" width="1" y="2.5" x="5.5"/>
    <rect id="rect3093" style="color:#000000;fill:#8c51cd" height="1" width="1" y="3.5" x="4.5"/>
    <rect id="rect3095" style="color:#000000;fill:#8c51cd" height="1" width="1" y="4.5" x="4.5"/>
    <rect id="rect3097" style="color:#000000;fill:#8c51cd" height="1" width="1" y="3.5" x="5.5"/>
    <rect id="rect3099" style="color:#000000;fill:#8c51cd" height="1" width="1" y="5.5" x="4.5"/>
    <rect id="rect3101" style="color:#000000;fill:#8c51cd" height="1" width="1" y="6.5" x="4.5"/>
    <rect id="rect3103" style="color:#000000;fill:#8c51cd" height="1" width="1" y=".5" x="6.5"/>
    <rect id="rect3105" style="color:#000000;fill:#8c51cd" height="1" width="1" y=".5" x="7.5"/>
    <rect id="rect3107" style="color:#000000;fill:#2f2725" height="1" width="1" y="-.5" x="6.5"/>
    <rect id="rect3109" style="color:#000000;fill:#2f2725" height="1" width="1" y="-.5" x="7.5"/>
    <rect id="rect3111" style="color:#000000;fill:#2f2725" height="1" width="1" y="-1.5" x="8.5"/>
    <rect id="rect3113" style="color:#000000;fill:#2f2725" height="1" width="1" y="-1.5" x="9.5"/>
    <rect id="rect3115" style="color:#000000;fill:#2f2725" height="1" width="1" y="-1.5" x="10.5"/>
    <rect id="rect3117" style="color:#000000;fill:#2f2725" height="1" width="1" y="-1.5" x="11.5"/>
    <rect id="rect3119" style="color:#000000;fill:#2f2725" height="1" width="1" y="-1.5" x="12.5"/>
    <rect id="rect3121" style="color:#000000;fill:#2f2725" height="1" width="1" y="-.5" x="13.5"/>
    <rect id="rect3123" style="color:#000000;fill:#2f2725" height="1" width="1" y="-.5" x="14.5"/>
    <rect id="rect3125" style="color:#000000;fill:#8c51cd" height="1" width="1" y="1.5" x="6.5"/>
    <rect id="rect3127" style="color:#000000;fill:#8c51cd" height="1" width="1" y="1.5" x="7.5"/>
    <rect id="rect3129" style="color:#000000;fill:#8c51cd" height="1" width="1" y=".5" x="7.5"/>
    <rect id="rect3131" style="color:#000000;fill:#8c51cd" height="1" width="1" y="-.5" x="8.5"/>
    <rect id="rect3133" style="color:#000000;fill:#8c51cd" height="1" width="1" y=".5" x="8.5"/>
    <rect id="rect3135" style="color:#000000;fill:#8c51cd" height="1" width="1" y=".5" x="9.5"/>
    <rect id="rect3137" style="color:#000000;fill:#8c51cd" height="1" width="1" y="-.5" x="9.5"/>
    <rect id="rect3139" style="color:#000000;fill:#8c51cd" height="1" width="1" y="-.5" x="10.5"/>
    <rect id="rect3141" style="color:#000000;fill:#8c51cd" height="1" width="1" y=".5" x="10.5"/>
    <rect id="rect3143" style="color:#000000;fill:#8c51cd" height="1" width="1" y=".5" x="11.5"/>
    <rect id="rect3145" style="color:#000000;fill:#8c51cd" height="1" width="1" y="-.5" x="11.5"/>
    <rect id="rect3147" style="color:#000000;fill:#8c51cd" height="1" width="1" y=".5" x="12.5"/>
    <rect id="rect3149" style="color:#000000;fill:#8c51cd" height="1" width="1" y="-.5" x="12.5"/>
    <rect id="rect3151" style="color:#000000;fill:#8c51cd" height="1" width="1" y=".5" x="13.5"/>
    <rect id="rect3153" style="color:#000000;fill:#8c51cd" height="1" width="1" y=".5" x="14.5"/>
    <rect id="rect3155" style="color:#000000;fill:#2f2725" height="1" width="1" y=".5" x="15.5"/>
    <rect id="rect3157" style="color:#000000;fill:#2f2725" height="1" width="1" y="1.5" x="16.5"/>
    <rect id="rect3159" style="color:#000000;fill:#2f2725" height="1" width="1" y="2.5" x="16.5"/>
    <rect id="rect3161" style="color:#000000;fill:#2f2725" height="1" width="1" y="3.5" x="17.5"/>
    <rect id="rect3163" style="color:#000000;fill:#2f2725" height="1" width="1" y="4.5" x="17.5"/>
    <rect id="rect3165" style="color:#000000;fill:#2f2725" height="1" width="1" y="5.5" x="17.5"/>
    <rect id="rect3167" style="color:#000000;fill:#2f2725" height="1" width="1" y="6.5" x="17.5"/>
    <rect id="rect3169" style="color:#000000;fill:#2f2725" height="1" width="1" y="7.5" x="16.5"/>
    <rect id="rect3171" style="color:#000000;fill:#2f2725" height="1" width="1" y="5.5" x="13.5"/>
    <rect id="rect3173" style="color:#000000;fill:#2f2725" height="1" width="1" y="6.5" x="13.5"/>
    <rect id="rect3175" style="color:#000000;fill:#2f2725" height="1" width="1" y="5.5" x="12.5"/>
    <rect id="rect3177" style="color:#000000;fill:#2f2725" height="1" width="1" y="6.5" x="12.5"/>
    <rect id="rect3179" style="color:#000000;fill:#2f2725" height="1" width="1" y="5.5" x="8.5"/>
    <rect id="rect3181" style="color:#000000;fill:#2f2725" height="1" width="1" y="6.5" x="8.5"/>
    <rect id="rect3183" style="color:#000000;fill:#2f2725" height="1" width="1" y="5.5" x="7.5"/>
    <rect id="rect3185" style="color:#000000;fill:#2f2725" height="1" width="1" y="6.5" x="7.5"/>
    <rect id="rect3187" style="color:#000000;fill:#2f2725" height="1" width="1" y="8.5" x="10.5"/>
    <rect id="rect3189" style="color:#000000;fill:#2f2725" height="1" width="1" y="9.5" x="10.5"/>
    <rect id="rect3191" style="color:#000000;fill:#2f2725" height="1" width="1" y="8.5" x="9.5"/>
    <rect id="rect3193" style="color:#000000;fill:#2f2725" height="1" width="1" y="9.5" x="9.5"/>
    <rect id="rect3195" style="color:#000000;fill:#2f2725" height="1" width="1" y="7.5" x="4.5"/>
    <rect id="rect3197" style="color:#000000;fill:#2f2725" height="1" width="1" y="8.5" x="3.5"/>
    <rect id="rect3199" style="color:#000000;fill:#2f2725" height="1" width="1" y="9.5" x="2.5"/>
    <rect id="rect3201" style="color:#000000;fill:#2f2725" height="1" width="1" y="10.5" x="2.5"/>
    <rect id="rect3203" style="color:#000000;fill:#2f2725" height="1" width="1" y="11.5" x="3.5"/>
    <rect id="rect3205" style="color:#000000;fill:#2f2725" height="1" width="1" y="12.5" x="3.5"/>
    <rect id="rect3207" style="color:#000000;fill:#2f2725" height="1" width="1" y="10.5" x="4.5"/>
    <rect id="rect3209" style="color:#000000;fill:#2f2725" height="1" width="1" y="11.5" x="4.5"/>
    <rect id="rect3211" style="color:#000000;fill:#2f2725" height="1" width="1" y="8.5" x="5.5"/>
    <rect id="rect3213" style="color:#000000;fill:#2f2725" height="1" width="1" y="9.5" x="5.5"/>
    <rect id="rect3215" style="color:#000000;fill:#2f2725" height="1" width="1" y="8.5" x="7.5"/>
    <rect id="rect3217" style="color:#000000;fill:#2f2725" height="1" width="1" y="9.5" x="7.5"/>
    <rect id="rect3219" style="color:#000000;fill:#2f2725" height="1" width="1" y="10.5" x="7.5"/>
    <rect id="rect3221" style="color:#000000;fill:#2f2725" height="1" width="1" y="11.5" x="7.5"/>
    <rect id="rect3223" style="color:#000000;fill:#2f2725" height="1" width="1" y="12.5" x="6.5"/>
    <rect id="rect3225" style="color:#000000;fill:#2f2725" height="1" width="1" y="13.5" x="6.5"/>
    <rect id="rect3227" style="color:#000000;fill:#2f2725" height="1" width="1" y="8.5" x="13.5"/>
    <rect id="rect3229" style="color:#000000;fill:#2f2725" height="1" width="1" y="9.5" x="13.5"/>
    <rect id="rect3231" style="color:#000000;fill:#2f2725" height="1" width="1" y="10.5" x="13.5"/>
    <rect id="rect3233" style="color:#000000;fill:#2f2725" height="1" width="1" y="11.5" x="13.5"/>
    <rect id="rect3235" style="color:#000000;fill:#2f2725" height="1" width="1" y="8.5" x="11.5"/>
    <rect id="rect3237" style="color:#000000;fill:#2f2725" height="1" width="1" y="9.5" x="11.5"/>
    <rect id="rect3239" style="color:#000000;fill:#2f2725" height="1" width="1" y="11.5" x="10.5"/>
    <rect id="rect3241" style="color:#000000;fill:#2f2725" height="1" width="1" y="12.5" x="10.5"/>
    <rect id="rect3243" style="color:#000000;fill:#2f2725" height="1" width="1" y="13.5" x="4.5"/>
    <rect id="rect3245" style="color:#000000;fill:#2f2725" height="1" width="1" y="13.5" x="5.5"/>
    <rect id="rect3247" style="color:#000000;fill:#2f2725" height="1" width="1" y="14.5" x="7.5"/>
    <rect id="rect3249" style="color:#000000;fill:#2f2725" height="1" width="1" y="14.5" x="8.5"/>
    <rect id="rect3251" style="color:#000000;fill:#2f2725" height="1" width="1" y="14.5" x="12.5"/>
    <rect id="rect3253" style="color:#000000;fill:#2f2725" height="1" width="1" y="14.5" x="13.5"/>
    <rect id="rect3255" style="color:#000000;fill:#8c51cd" height="1" width="1" y="2.5" x="6.5"/>
    <rect id="rect3257" style="color:#000000;fill:#8c51cd" height="1" width="1" y="2.5" x="7.5"/>
    <rect id="rect3259" style="color:#000000;fill:#8c51cd" height="1" width="1" y="2.5" x="8.5"/>
    <rect id="rect3261" style="color:#000000;fill:#8c51cd" height="1" width="1" y="2.5" x="9.5"/>
    <rect id="rect3263" style="color:#000000;fill:#8c51cd" height="1" width="1" y="2.5" x="10.5"/>
    <rect id="rect3265" style="color:#000000;fill:#8c51cd" height="1" width="1" y="2.5" x="11.5"/>
    <rect id="rect3267" style="color:#000000;fill:#8c51cd" height="1" width="1" y="2.5" x="12.5"/>
    <rect id="rect3269" style="color:#000000;fill:#8c51cd" height="1" width="1" y="2.5" x="13.5"/>
    <rect id="rect3271" style="color:#000000;fill:#8c51cd" height="1" width="1" y="2.5" x="14.5"/>
    <rect id="rect3273" style="color:#000000;fill:#8c51cd" height="1" width="1" y="2.5" x="15.5"/>
    <rect id="rect3275" style="color:#000000;fill:#8c51cd" height="1" width="1" y="2.5" x="6.5"/>
    <rect id="rect3277" style="color:#000000;fill:#8c51cd" height="1" width="1" y="2.5" x="7.5"/>
    <rect id="rect3279" style="color:#000000;fill:#8c51cd" height="1" width="1" y="3.5" x="9.5"/>
    <rect id="rect3281" style="color:#000000;fill:#8c51cd" height="1" width="1" y="3.5" x="10.5"/>
    <rect id="rect3283" style="color:#000000;fill:#8c51cd" height="1" width="1" y="3.5" x="11.5"/>
    <rect id="rect3285" style="color:#000000;fill:#8c51cd" height="1" width="1" y="4.5" x="10.5"/>
    <rect id="rect3287" style="color:#000000;fill:#8c51cd" height="1" width="1" y="5.5" x="10.5"/>
    <rect id="rect3289" style="color:#000000;fill:#8c51cd" height="1" width="1" y="7.5" x="5.5"/>
    <rect id="rect3291" style="color:#000000;fill:#8c51cd" height="1" width="1" y="8.5" x="6.5"/>
    <rect id="rect3295" style="color:#000000;fill:#8c51cd" height="1" width="1" y="8.5" x="4.5"/>
    <rect id="rect3297" style="color:#000000;fill:#8c51cd" height="1" width="1" y="9.5" x="4.5"/>
    <rect id="rect3299" style="color:#000000;fill:#8c51cd" height="1" width="1" y="9.5" x="3.5"/>
    <rect id="rect3301" style="color:#000000;fill:#8c51cd" height="1" width="1" y="10.5" x="3.5"/>
    <rect id="rect3303" style="color:#000000;fill:#8c51cd" height="1" width="1" y="10.5" x="5.5"/>
    <rect id="rect3311" style="color:#000000;fill:#8c51cd" height="1" width="1" y="11.5" x="5.5"/>
    <rect id="rect3313" style="color:#000000;fill:#8c51cd" height="1" width="1" y="12.5" x="4.5"/>
    <rect id="rect3315" style="color:#000000;fill:#8c51cd" height="1" width="1" y="12.5" x="5.5"/>
    <rect id="rect3317" style="color:#000000;fill:#8c51cd" height="1" width="1" y="13.5" x="7.5"/>
    <rect id="rect3319" style="color:#000000;fill:#8c51cd" height="1" width="1" y="13.5" x="8.5"/>
    <rect id="rect3321" style="color:#000000;fill:#8c51cd" height="1" width="1" y="12.5" x="8.5"/>
    <rect id="rect3323" style="color:#000000;fill:#8c51cd" height="1" width="1" y="11.5" x="8.5"/>
    <rect id="rect3325" style="color:#000000;fill:#8c51cd" height="1" width="1" y="9.5" x="8.5"/>
    <rect id="rect3305" style="color:#000000;fill:#8c51cd" height="1" width="1" y="8.5" x="8.5"/>
    <rect id="rect3307" style="color:#000000;fill:#8c51cd" height="1" width="1" y="11.5" x="6.5"/>
    <rect id="rect3293" style="color:#000000;fill:#8c51cd" height="1" width="1" y="10.5" x="6.5"/>
    <rect id="rect3329" style="color:#000000;fill:#ffffff" height="1" width="1" y="4.5" x="5.5"/>
    <rect id="rect3331" style="color:#000000;fill:#ffffff" height="1" width="1" y="5.5" x="5.5"/>
    <rect id="rect3333" style="color:#000000;fill:#ffffff" height="1" width="1" y="6.5" x="5.5"/>
    <rect id="rect3327" style="color:#000000;fill:#ffffff" height="1" width="1" y="7.5" x="6.5"/>
    <rect id="rect3335" style="color:#000000;fill:#ffffff" height="1" width="1" y="7.5" x="7.5"/>
    <rect id="rect3337" style="color:#000000;fill:#ffffff" height="1" width="1" y="4.5" x="6.5"/>
    <rect id="rect3339" style="color:#000000;fill:#ffffff" height="1" width="1" y="5.5" x="6.5"/>
    <rect id="rect3341" style="color:#000000;fill:#ffffff" height="1" width="1" y="6.5" x="6.5"/>
    <rect id="rect3343" style="color:#000000;fill:#ffffff" height="1" width="1" y="4.5" x="14.5"/>
    <rect id="rect3345" style="color:#000000;fill:#ffffff" height="1" width="1" y="5.5" x="14.5"/>
    <rect id="rect3347" style="color:#000000;fill:#ffffff" height="1" width="1" y="6.5" x="14.5"/>
    <rect id="rect3349" style="color:#000000;fill:#ffffff" height="1" width="1" y="4.5" x="15.5"/>
    <rect id="rect3351" style="color:#000000;fill:#ffffff" height="1" width="1" y="5.5" x="15.5"/>
    <rect id="rect3353" style="color:#000000;fill:#ffffff" height="1" width="1" y="6.5" x="15.5"/>
    <rect id="rect3355" style="color:#000000;fill:#ffffff" height="1" width="1" y="4.5" x="7.5"/>
    <rect id="rect3357" style="color:#000000;fill:#ffffff" height="1" width="1" y="4.5" x="8.5"/>
    <rect id="rect3359" style="color:#000000;fill:#ffffff" height="1" width="1" y="3.5" x="7.5"/>
    <rect id="rect3361" style="color:#000000;fill:#ffffff" height="1" width="1" y="3.5" x="8.5"/>
    <rect id="rect3363" style="color:#000000;fill:#ffffff" height="1" width="1" y="5.5" x="9.5"/>
    <rect id="rect3365" style="color:#000000;fill:#ffffff" height="1" width="1" y="4.5" x="9.5"/>
    <rect id="rect3367" style="color:#000000;fill:#ffffff" height="1" width="1" y="5.5" x="11.5"/>
    <rect id="rect3369" style="color:#000000;fill:#ffffff" height="1" width="1" y="4.5" x="11.5"/>
    <rect id="rect3371" style="color:#000000;fill:#ffffff" height="1" width="1" y="4.5" x="12.5"/>
    <rect id="rect3373" style="color:#000000;fill:#ffffff" height="1" width="1" y="3.5" x="12.5"/>
    <rect id="rect3375" style="color:#000000;fill:#ffffff" height="1" width="1" y="4.5" x="13.5"/>
    <rect id="rect3377" style="color:#000000;fill:#ffffff" height="1" width="1" y="3.5" x="13.5"/>
    <rect id="rect3379" style="color:#000000;fill:#ffffff" height="1" width="1" y="3.5" x="14.5"/>
    <rect id="rect3381" style="color:#000000;fill:#ffffff" height="1" width="1" y="7.5" x="13.5"/>
    <rect id="rect3383" style="color:#000000;fill:#ffffff" height="1" width="1" y="7.5" x="14.5"/>
    <rect id="rect3385" style="color:#000000;fill:#8c51cd" height="1" width="1" y="7.5" x="9.5"/>
    <rect id="rect3387" style="color:#000000;fill:#8c51cd" height="1" width="1" y="7.5" x="10.5"/>
    <rect id="rect3389" style="color:#000000;fill:#8c51cd" height="1" width="1" y="7.5" x="11.5"/>
    <rect id="rect3391" style="color:#000000;fill:#8c51cd" height="1" width="1" y="8.5" x="12.5"/>
    <rect id="rect3393" style="color:#000000;fill:#8c51cd" height="1" width="1" y="9.5" x="12.5"/>
    <rect id="rect3395" style="color:#000000;fill:#8c51cd" height="1" width="1" y="10.5" x="9.5"/>
    <rect id="rect3397" style="color:#000000;fill:#8c51cd" height="1" width="1" y="10.5" x="10.5"/>
    <rect id="rect3399" style="color:#000000;fill:#8c51cd" height="1" width="1" y="10.5" x="11.5"/>
    <rect id="rect3405" style="color:#000000;fill:#8c51cd" height="1" width="1" y="12.5" x="9.5"/>
    <rect id="rect3407" style="color:#000000;fill:#8c51cd" height="1" width="1" y="12.5" x="11.5"/>
    <rect id="rect3409" style="color:#000000;fill:#8c51cd" height="1" width="1" y="12.5" x="12.5"/>
    <rect id="rect3411" style="color:#000000;fill:#8c51cd" height="1" width="1" y="11.5" x="12.5"/>
    <rect id="rect3413" style="color:#000000;fill:#8c51cd" height="1" width="1" y="13.5" x="12.5"/>
    <rect id="rect3415" style="color:#000000;fill:#8c51cd" inkscape:transform-center-x="-0.5" inkscape:transform-center-y="-0.5" height="1" width="1" y="13.5" x="13.5"/>
    <rect id="rect3417" style="color:#000000;fill:#8c51cd" height="1" width="1" y="10.5" x="14.5"/>
    <rect id="rect3419" style="color:#000000;fill:#8c51cd" inkscape:transform-center-x="-0.5" inkscape:transform-center-y="-0.5" height="1" width="1" y="10.5" x="15.5"/>
    <rect id="rect3421" style="color:#000000;fill:#8c51cd" height="1" width="1" y="11.5" x="14.5"/>
    <rect id="rect3423" style="color:#000000;fill:#8c51cd" inkscape:transform-center-x="-0.5" inkscape:transform-center-y="-0.5" height="1" width="1" y="11.5" x="15.5"/>
    <rect id="rect3425" style="color:#000000;fill:#8c51cd" height="1" width="1" y="12.5" x="15.5"/>
    <rect id="rect3427" style="color:#000000;fill:#8c51cd" inkscape:transform-center-x="-0.5" inkscape:transform-center-y="-0.5" height="1" width="1" y="12.5" x="16.5"/>
    <rect id="rect3429" style="color:#000000;fill:#8c51cd" height="1" width="1" y="9.5" x="16.5"/>
    <rect id="rect3431" style="color:#000000;fill:#8c51cd" inkscape:transform-center-x="-0.5" inkscape:transform-center-y="-0.5" height="1" width="1" y="9.5" x="17.5"/>
    <rect id="rect3433" style="color:#000000;fill:#8c51cd" height="1" width="1" y="3.5" x="15.5"/>
    <rect id="rect3435" style="color:#000000;fill:#8c51cd" height="1" width="1" y="4.5" x="16.5"/>
    <rect id="rect3437" style="color:#000000;fill:#8c51cd" height="1" width="1" y="5.5" x="16.5"/>
    <rect id="rect3439" style="color:#000000;fill:#8c51cd" height="1" width="1" y="6.5" x="16.5"/>
    <rect id="rect3441" style="color:#000000;fill:#8c51cd" height="1" width="1" y="3.5" x="16.5"/>
    <rect id="rect3443" style="color:#000000;fill:#8c51cd" height="1" width="1" y="7.5" x="15.5"/>
    <rect id="rect3445" style="color:#000000;fill:#8c51cd" height="1" width="1" y="8.5" x="14.5"/>
    <rect id="rect3447" style="color:#000000;fill:#8c51cd" height="1" width="1" y="8.5" x="16.5"/>
    <path id="rect3449" d="m17.5 10.5h1v1h-1v-1z" style="color:#000000;fill:#8c51cd" inkscape:connector-curvature="0"/>
    <rect id="rect3472" style="color:#000000;fill:#2f2725" height="1" width="1" y="6.5" x="9.5"/>
    <rect id="rect3474" style="color:#000000;fill:#2f2725" height="1" width="1" y="7.5" x="8.5"/>
    <rect id="rect3476" style="color:#000000;fill:#2f2725" height="1" width="1" y="9.5" x="6.5"/>
    <rect id="rect3478" style="color:#000000;fill:#2f2725" height="1" width="1" y="10.5" x="8.5"/>
    <rect id="rect3480" style="color:#000000;fill:#2f2725" height="1" width="1" y="12.5" x="7.5"/>
    <rect id="rect3482" style="color:#000000;fill:#2f2725" height="1" width="1" y="11.5" x="9.5"/>
    <rect id="rect3484" style="color:#000000;fill:#2f2725" height="1" width="1" y="11.5" x="11.5"/>
    <rect id="rect3486" style="color:#000000;fill:#2f2725" height="1" width="1" y="13.5" x="9.5"/>
    <rect id="rect3488" style="color:#000000;fill:#2f2725" height="1" width="1" y="13.5" x="11.5"/>
    <rect id="rect3490" style="color:#000000;fill:#2f2725" height="1" width="1" y="10.5" x="12.5"/>
    <rect id="rect3492" style="color:#000000;fill:#2f2725" height="1" width="1" y="9.5" x="14.5"/>
    <rect id="rect3494" style="color:#000000;fill:#2f2725" height="1" width="1" y="9.5" x="15.5"/>
    <rect id="rect3496" style="color:#000000;fill:#2f2725" height="1" width="1" y="8.5" x="15.5"/>
    <rect id="rect3498" style="color:#000000;fill:#2f2725" height="1" width="1" y="7.5" x="12.5"/>
    <rect id="rect3500" style="color:#000000;fill:#2f2725" height="1" width="1" y="6.5" x="11.5"/>
    <rect id="rect3502" style="color:#000000;fill:#2f2725" height="1" width="1" y="6.5" x="10.5"/>
    <rect id="rect3504" style="color:#000000;fill:#2f2725" height="1" width="1" y="12.5" x="14.5"/>
    <rect id="rect3506" style="color:#000000;fill:#2f2725" height="1" width="1" y="12.5" x="13.5"/>
    <rect id="rect3508" style="color:#000000;fill:#2f2725" height="1" width="1" y="13.5" x="15.5"/>
    <rect id="rect3510" style="color:#000000;fill:#2f2725" height="1" width="1" y="13.5" x="14.5"/>
    <rect id="rect3512" style="color:#000000;fill:#2f2725" height="1" width="1" y="11.5" x="17.5"/>
    <rect id="rect3514" style="color:#000000;fill:#2f2725" height="1" width="1" y="11.5" x="16.5"/>
    <rect id="rect3516" style="color:#000000;fill:#2f2725" height="1" width="1" y="10.5" x="18.5"/>
    <rect id="rect3518" style="color:#000000;fill:#2f2725" height="1" width="1" y="9.5" x="18.5"/>
    <rect id="rect3520" style="color:#000000;fill:#2f2725" height="1" width="1" y="8.5" x="17.5"/>
    <rect id="rect3522" style="color:#000000;fill:#2f2725" height="1" width="1" y="10.5" x="16.5"/>
    <rect id="rect3524" style="color:#000000;fill:#2f2725" height="1" width="1" y="12.5" x="17.5"/>
    <rect id="rect3526" style="color:#000000;fill:#2f2725" height="1" width="1" y="13.5" x="16.5"/>
  </g>
  <metadata>
    <rdf:RDF>
      <cc:Work>
        <dc:format>image/svg+xml</dc:format>
        <dc:type rdf:resource="http://purl.org/dc/dcmitype/StillImage"/>
        <cc:license rdf:resource="http://creativecommons.org/licenses/publicdomain/"/>
        <dc:publisher>
          <cc:Agent rdf:about="http://openclipart.org/">
            <dc:title>Openclipart</dc:title>
          </cc:Agent>
        </dc:publisher>
      </cc:Work>
      <cc:License rdf:about="http://creativecommons.org/licenses/publicdomain/">
        <cc:permits rdf:resource="http://creativecommons.org/ns#Reproduction"/>
        <cc:permits rdf:resource="http://creativecommons.org/ns#Distribution"/>
        <cc:permits rdf:resource="http://creativecommons.org/ns#DerivativeWorks"/>
      </cc:License>
    </rdf:RDF>
  </metadata>
</svg>
